<?xml version="1.0" encoding="iso-8859-1"?>
<!-- Generator: Adobe Illustrator 19.0.0, SVG Export Plug-In . SVG Version: 6.00 Build 0)  -->
<svg version="1.1" id="Layer_1" xmlns="http://www.w3.org/2000/svg" xmlns:xlink="http://www.w3.org/1999/xlink" x="0px" y="0px"
	 viewBox="0 0 508 508" style="enable-background:new 0 0 508 508;" xml:space="preserve">
<circle style="fill:#90DFAA;" cx="254" cy="254" r="254"/>
<path style="fill:#FFFFFF;" d="M54.4,254L54.4,254L54.4,254c110.4,155.6,289.2,155.6,399.6,0l0,0C343.6,98.4,164.4,98.4,54.4,254z"
	/>
<circle style="fill:#FFD05B;" cx="258" cy="251.6" r="87.6"/>
<circle style="fill:#F9B54C;" cx="258" cy="251.6" r="56.8"/>
<path style="fill:#324A5E;" d="M260.8,278.4v8.4h-5.6v-8c-5.2,0-10-1.2-14.4-3.6v-10.8c1.6,1.2,3.6,2.4,6.8,3.2
	c2.8,1.2,5.6,1.6,8,1.6v-14c-6-2.4-10-4.8-12.4-7.2c-2-2.8-3.2-5.6-3.2-9.6s1.6-7.6,4.4-10.4c2.8-2.8,6.8-4.4,11.2-4.8V216h5.6v7.2
	c5.6,0.4,9.6,1.2,12,2.8v10.4c-3.6-2-7.6-3.6-12-4v14.8c5.6,2,9.6,4.4,12,6.8c2.4,2.8,3.6,5.6,3.6,9.6c0,4.4-1.2,7.6-4,10.4
	C269.6,276.4,265.6,278,260.8,278.4z M255.2,244.8v-12.4c-3.6,0.8-5.2,2.4-5.2,5.6C249.6,240.8,251.6,243.2,255.2,244.8z M260.8,258
	v11.6c3.6-0.4,5.6-2.4,5.6-5.6C266.4,261.6,264.4,259.6,260.8,258z"/>
<g>
</g>
<g>
</g>
<g>
</g>
<g>
</g>
<g>
</g>
<g>
</g>
<g>
</g>
<g>
</g>
<g>
</g>
<g>
</g>
<g>
</g>
<g>
</g>
<g>
</g>
<g>
</g>
<g>
</g>
</svg>
